<?xml version="1.0" encoding="utf-8"?>
<!-- Generator: Adobe Illustrator 16.0.0, SVG Export Plug-In . SVG Version: 6.00 Build 0)  -->
<!DOCTYPE svg PUBLIC "-//W3C//DTD SVG 1.1//EN" "http://www.w3.org/Graphics/SVG/1.1/DTD/svg11.dtd">
<svg version="1.1" id="Layer_1" xmlns="http://www.w3.org/2000/svg" xmlns:xlink="http://www.w3.org/1999/xlink" x="0px" y="0px"
	 width="100px" height="22px" viewBox="0 0 100 22" enable-background="new 0 0 100 22" xml:space="preserve">
<g>
	<g>
		<g>
			<polygon fill="#3162AD" points="11.942,15.365 11.942,14.363 5.083,14.363 5.083,15.365 5.94,15.365 5.94,20.884 5.083,20.884 
				5.083,21.887 7.739,21.887 7.739,20.884 6.942,20.884 6.942,17.647 11.942,17.647 11.942,16.646 6.942,16.646 6.942,15.365 			
				"/>
			<polygon fill="#F2723F" points="1.46,10.27 1.46,11.271 2.281,11.271 2.281,20.884 1.46,20.884 1.46,21.887 4.117,21.887 
				4.117,20.884 3.284,20.884 3.284,11.271 5.94,11.271 5.94,13.373 6.942,13.373 6.942,11.271 7.739,11.271 7.739,10.27 			"/>
			<polygon fill="#F2723F" points="16.434,11.271 16.434,10.27 10.155,10.27 10.155,11.271 10.952,11.271 10.952,13.373 
				11.954,13.373 11.954,11.271 14.61,11.271 14.61,20.884 11.954,20.884 11.954,18.632 10.952,18.632 10.952,20.884 10.155,20.884 
				10.155,21.887 16.434,21.887 16.434,20.884 15.613,20.884 15.613,11.271 			"/>
		</g>
		<path fill="#3162AD" d="M9.687,1.128c2.182,0,4.067,1.292,4.931,3.151h1.102c-0.921-2.435-3.274-4.166-6.032-4.166
			s-5.11,1.731-6.032,4.166h1.102C5.62,2.42,7.505,1.128,9.687,1.128z"/>
		<polygon fill="#244985" points="15.519,3.555 14.417,3.555 4.556,3.555 3.455,3.555 3.039,3.555 3.039,5 3.092,5 4.117,5 
			14.856,5 15.881,5 16.128,5 16.128,3.555 		"/>
		<path fill="#D04E2C" d="M14.066,9.158h-0.013c-0.702,0-1.271-0.509-1.271-1.137V7.169h2.556v0.853
			C15.338,8.649,14.769,9.158,14.066,9.158z"/>
		<path fill="#244985" d="M11.51,9.158h-0.013c-0.703,0-1.272-0.509-1.272-1.137V7.169h2.557v0.853
			C12.782,8.649,12.212,9.158,11.51,9.158z"/>
		<path fill="#D04E2C" d="M8.954,9.158H8.94c-0.702,0-1.271-0.509-1.271-1.137V7.169h2.556v0.853
			C10.225,8.649,9.656,9.158,8.954,9.158z"/>
		<path fill="#244985" d="M6.397,9.158H6.384c-0.703,0-1.272-0.509-1.272-1.137V7.169h2.557v0.853
			C7.669,8.649,7.1,9.158,6.397,9.158z"/>
		<path fill="#D04E2C" d="M3.841,9.158H3.828c-0.702,0-1.271-0.509-1.271-1.137V7.169h2.556v0.853
			C5.112,8.649,4.543,9.158,3.841,9.158z"/>
		<path fill="#244985" d="M16.623,9.158h-0.013c-0.702,0-1.271-0.509-1.271-1.137V7.169h2.556v0.853
			C17.894,8.649,17.325,9.158,16.623,9.158z"/>
		<path fill="#244985" d="M1.284,9.158H1.271C0.569,9.158,0,8.649,0,8.021V7.169h2.556v0.853C2.556,8.649,1.987,9.158,1.284,9.158z"
			/>
		<polygon fill="#3162AD" points="12.412,4.279 10.595,4.279 10.225,7.169 12.782,7.169 		"/>
		<polygon fill="#F2723F" points="10.595,4.279 8.777,4.279 7.669,7.169 10.225,7.169 		"/>
		<polygon fill="#3162AD" points="8.777,4.279 6.959,4.279 5.112,7.169 7.669,7.169 		"/>
		<polygon fill="#F2723F" points="6.959,4.279 5.142,4.279 2.556,7.169 5.112,7.169 		"/>
		<polygon fill="#3162AD" points="5.142,4.279 3.324,4.279 0,7.169 2.556,7.169 		"/>
		<polygon fill="#3162AD" points="16.044,4.279 14.227,4.279 15.338,7.169 17.894,7.169 		"/>
		<polygon fill="#F2723F" points="14.227,4.279 12.409,4.279 12.782,7.169 15.338,7.169 		"/>
	</g>
	<g>
		<g>
			<path fill="#3162AD" d="M23.608,18.795l0.444-2.814h-2.844l-0.444,2.814H19.17l1.13-7.132h1.594l-0.454,2.886h2.845l0.454-2.886
				h1.594l-1.129,7.132H23.608z"/>
			<path fill="#3162AD" d="M31.275,18.795h-1.261l-0.051-0.736c-0.034,0.041-0.091,0.107-0.171,0.202
				c-0.081,0.094-0.19,0.189-0.328,0.287c-0.138,0.098-0.303,0.182-0.494,0.252c-0.192,0.071-0.409,0.106-0.651,0.106
				c-0.504,0-0.915-0.177-1.23-0.529c-0.316-0.354-0.474-0.887-0.474-1.6c0-0.45,0.067-0.882,0.202-1.296
				c0.134-0.413,0.338-0.776,0.61-1.09c0.272-0.313,0.612-0.561,1.019-0.746c0.407-0.185,0.879-0.277,1.417-0.277
				c0.282,0,0.556,0.023,0.822,0.07c0.265,0.048,0.502,0.098,0.711,0.151c0.242,0.067,0.471,0.138,0.686,0.212L31.275,18.795z
				 M30.377,14.689c-0.074-0.02-0.151-0.04-0.232-0.061c-0.074-0.013-0.153-0.026-0.237-0.04c-0.084-0.014-0.17-0.021-0.257-0.021
				c-0.249,0-0.466,0.058-0.65,0.172c-0.185,0.114-0.338,0.266-0.459,0.454c-0.121,0.188-0.212,0.401-0.272,0.641
				c-0.061,0.238-0.091,0.482-0.091,0.731c0,0.208,0.019,0.381,0.055,0.519c0.037,0.139,0.089,0.249,0.157,0.333
				c0.067,0.085,0.145,0.144,0.232,0.177c0.087,0.034,0.178,0.051,0.272,0.051c0.147,0,0.287-0.041,0.418-0.121
				c0.131-0.081,0.247-0.173,0.348-0.277c0.101-0.104,0.187-0.209,0.257-0.313c0.071-0.104,0.12-0.181,0.146-0.228L30.377,14.689z"
				/>
			<path fill="#3162AD" d="M32.889,17.303c0.128,0.08,0.276,0.154,0.444,0.222c0.142,0.054,0.308,0.103,0.5,0.146
				c0.192,0.043,0.405,0.065,0.641,0.065c0.498,0,0.747-0.135,0.747-0.404c0-0.073-0.019-0.136-0.056-0.187
				c-0.037-0.05-0.092-0.094-0.167-0.131s-0.165-0.072-0.272-0.105c-0.107-0.034-0.232-0.077-0.373-0.132
				c-0.208-0.073-0.402-0.157-0.58-0.252c-0.178-0.094-0.331-0.207-0.459-0.338s-0.227-0.285-0.297-0.464
				c-0.071-0.178-0.106-0.392-0.106-0.641c0-0.511,0.185-0.925,0.555-1.241c0.37-0.315,0.955-0.474,1.755-0.474
				c0.323,0,0.597,0.023,0.822,0.07c0.226,0.048,0.41,0.098,0.555,0.151c0.145,0.054,0.25,0.102,0.317,0.142
				s0.101,0.058,0.101,0.051l-0.424,1.119c0,0.007-0.03-0.008-0.091-0.045s-0.148-0.077-0.262-0.121s-0.257-0.084-0.429-0.121
				s-0.372-0.056-0.6-0.056c-0.531,0-0.797,0.128-0.797,0.383c0,0.088,0.025,0.162,0.076,0.223s0.119,0.112,0.207,0.156
				s0.185,0.084,0.292,0.121c0.108,0.037,0.222,0.075,0.343,0.116c0.242,0.087,0.452,0.18,0.63,0.277s0.326,0.21,0.444,0.338
				s0.204,0.272,0.257,0.434s0.081,0.347,0.081,0.555c0,0.571-0.197,1.005-0.59,1.301c-0.394,0.297-0.967,0.444-1.72,0.444
				c-0.336,0-0.629-0.023-0.877-0.07c-0.249-0.047-0.456-0.102-0.621-0.162c-0.165-0.061-0.287-0.115-0.368-0.166
				c-0.081-0.051-0.121-0.079-0.121-0.086L32.889,17.303z"/>
			<path fill="#3162AD" d="M40.223,11.421l-0.343,2.18l-0.131,0.604c0.047-0.054,0.123-0.127,0.227-0.222
				c0.104-0.094,0.234-0.187,0.389-0.277c0.154-0.091,0.334-0.17,0.54-0.237c0.205-0.066,0.436-0.101,0.691-0.101
				c0.471,0,0.827,0.133,1.069,0.398s0.363,0.631,0.363,1.095c0,0.168-0.014,0.329-0.041,0.484l-0.545,3.449h-1.563l0.525-3.309
				c0.006-0.047,0.011-0.091,0.015-0.131c0.003-0.04,0.005-0.077,0.005-0.111c0-0.41-0.185-0.615-0.555-0.615
				c-0.175,0-0.338,0.044-0.489,0.131c-0.151,0.088-0.288,0.182-0.409,0.283c-0.141,0.121-0.272,0.255-0.394,0.403l-0.524,3.349
				h-1.563l1.17-7.374H40.223z"/>
			<path fill="#3162AD" d="M43.591,18.795l0.837-5.315h1.563l-0.837,5.315H43.591z M46.355,11.956c0,0.256-0.079,0.476-0.237,0.66
				c-0.158,0.186-0.422,0.278-0.792,0.278c-0.276,0-0.473-0.061-0.59-0.182s-0.176-0.279-0.176-0.475
				c0-0.256,0.079-0.474,0.237-0.656c0.158-0.181,0.422-0.271,0.792-0.271c0.276,0,0.472,0.059,0.59,0.176
				C46.296,11.604,46.355,11.761,46.355,11.956z"/>
			<path fill="#3162AD" d="M48.464,13.479l0.061,0.736c0.134-0.162,0.296-0.303,0.484-0.424c0.155-0.107,0.35-0.205,0.585-0.293
				c0.235-0.087,0.505-0.131,0.807-0.131c0.484,0,0.855,0.135,1.115,0.403c0.258,0.27,0.388,0.643,0.388,1.12
				c0,0.074-0.003,0.147-0.01,0.222s-0.017,0.151-0.03,0.232l-0.545,3.449h-1.563l0.524-3.309c0.007-0.04,0.012-0.08,0.015-0.121
				c0.003-0.04,0.005-0.077,0.005-0.11c0-0.216-0.052-0.374-0.157-0.475c-0.104-0.101-0.244-0.151-0.418-0.151
				s-0.34,0.046-0.494,0.137c-0.155,0.091-0.29,0.193-0.404,0.308c-0.134,0.128-0.262,0.275-0.383,0.443l-0.514,3.278h-1.563
				l0.837-5.315H48.464z"/>
			<path fill="#3162AD" d="M52.469,18.795l0.837-5.315h1.563l-0.838,5.315H52.469z M55.232,11.956c0,0.256-0.079,0.476-0.237,0.66
				c-0.157,0.186-0.422,0.278-0.792,0.278c-0.275,0-0.473-0.061-0.59-0.182s-0.176-0.279-0.176-0.475
				c0-0.256,0.078-0.474,0.236-0.656c0.158-0.181,0.422-0.271,0.792-0.271c0.275,0,0.472,0.059,0.59,0.176
				C55.174,11.604,55.232,11.761,55.232,11.956z"/>
			<path fill="#3162AD" d="M59.469,16.092l-0.434,2.703h-1.594l1.13-7.132h4.983l-0.202,1.312h-3.39l-0.282,1.806h2.946
				l-0.213,1.312H59.469z"/>
			<path fill="#3162AD" d="M68.275,18.795h-1.262l-0.05-0.736c-0.034,0.041-0.091,0.107-0.171,0.202
				c-0.082,0.094-0.191,0.189-0.328,0.287c-0.139,0.098-0.303,0.182-0.494,0.252c-0.192,0.071-0.409,0.106-0.651,0.106
				c-0.505,0-0.915-0.177-1.23-0.529c-0.316-0.354-0.474-0.887-0.474-1.6c0-0.45,0.066-0.882,0.201-1.296
				c0.135-0.413,0.338-0.776,0.61-1.09c0.272-0.313,0.612-0.561,1.019-0.746c0.407-0.185,0.879-0.277,1.418-0.277
				c0.282,0,0.557,0.023,0.822,0.07c0.266,0.048,0.502,0.098,0.711,0.151c0.242,0.067,0.471,0.138,0.686,0.212L68.275,18.795z
				 M67.377,14.689c-0.074-0.02-0.15-0.04-0.231-0.061c-0.074-0.013-0.153-0.026-0.237-0.04s-0.17-0.021-0.258-0.021
				c-0.248,0-0.465,0.058-0.65,0.172c-0.185,0.114-0.338,0.266-0.459,0.454s-0.211,0.401-0.271,0.641
				c-0.061,0.238-0.092,0.482-0.092,0.731c0,0.208,0.02,0.381,0.057,0.519c0.036,0.139,0.088,0.249,0.156,0.333
				c0.066,0.085,0.145,0.144,0.231,0.177c0.087,0.034,0.179,0.051,0.272,0.051c0.148,0,0.287-0.041,0.418-0.121
				c0.132-0.081,0.248-0.173,0.349-0.277s0.187-0.209,0.257-0.313c0.071-0.104,0.119-0.181,0.146-0.228L67.377,14.689z"/>
			<path fill="#3162AD" d="M69.889,17.303c0.128,0.08,0.275,0.154,0.444,0.222c0.142,0.054,0.308,0.103,0.499,0.146
				c0.191,0.043,0.405,0.065,0.641,0.065c0.498,0,0.746-0.135,0.746-0.404c0-0.073-0.018-0.136-0.055-0.187
				c-0.037-0.05-0.093-0.094-0.167-0.131c-0.073-0.037-0.165-0.072-0.272-0.105c-0.107-0.034-0.232-0.077-0.373-0.132
				c-0.209-0.073-0.402-0.157-0.58-0.252c-0.178-0.094-0.331-0.207-0.459-0.338c-0.127-0.131-0.227-0.285-0.297-0.464
				c-0.071-0.178-0.106-0.392-0.106-0.641c0-0.511,0.185-0.925,0.555-1.241c0.37-0.315,0.955-0.474,1.755-0.474
				c0.323,0,0.598,0.023,0.822,0.07c0.226,0.048,0.41,0.098,0.555,0.151s0.251,0.102,0.318,0.142
				c0.066,0.04,0.101,0.058,0.101,0.051l-0.424,1.119c0,0.007-0.03-0.008-0.091-0.045s-0.147-0.077-0.262-0.121
				c-0.115-0.044-0.258-0.084-0.43-0.121c-0.171-0.037-0.371-0.056-0.6-0.056c-0.531,0-0.797,0.128-0.797,0.383
				c0,0.088,0.025,0.162,0.076,0.223c0.05,0.061,0.119,0.112,0.207,0.156c0.086,0.044,0.184,0.084,0.292,0.121
				c0.107,0.037,0.222,0.075,0.343,0.116c0.242,0.087,0.452,0.18,0.631,0.277c0.178,0.098,0.326,0.21,0.443,0.338
				s0.203,0.272,0.258,0.434c0.053,0.161,0.08,0.347,0.08,0.555c0,0.571-0.196,1.005-0.59,1.301
				c-0.394,0.297-0.967,0.444-1.721,0.444c-0.336,0-0.628-0.023-0.877-0.07s-0.455-0.102-0.62-0.162s-0.288-0.115-0.368-0.166
				c-0.081-0.051-0.121-0.079-0.121-0.086L69.889,17.303z"/>
			<path fill="#3162AD" d="M77.223,11.421l-0.344,2.18l-0.131,0.604c0.047-0.054,0.123-0.127,0.228-0.222
				c0.104-0.094,0.233-0.187,0.388-0.277c0.155-0.091,0.335-0.17,0.54-0.237c0.205-0.066,0.436-0.101,0.69-0.101
				c0.471,0,0.828,0.133,1.07,0.398s0.363,0.631,0.363,1.095c0,0.168-0.014,0.329-0.041,0.484l-0.545,3.449h-1.563l0.523-3.309
				c0.007-0.047,0.012-0.091,0.016-0.131s0.005-0.077,0.005-0.111c0-0.41-0.185-0.615-0.555-0.615c-0.175,0-0.338,0.044-0.489,0.131
				c-0.151,0.088-0.287,0.182-0.408,0.283c-0.142,0.121-0.273,0.255-0.394,0.403l-0.524,3.349h-1.564l1.171-7.374H77.223z"/>
			<path fill="#3162AD" d="M80.592,18.795l0.837-5.315h1.563l-0.837,5.315H80.592z M83.355,11.956c0,0.256-0.079,0.476-0.236,0.66
				c-0.158,0.186-0.423,0.278-0.793,0.278c-0.275,0-0.473-0.061-0.59-0.182s-0.176-0.279-0.176-0.475
				c0-0.256,0.078-0.474,0.236-0.656c0.158-0.181,0.422-0.271,0.792-0.271c0.276,0,0.473,0.059,0.591,0.176
				C83.297,11.604,83.355,11.761,83.355,11.956z"/>
			<path fill="#3162AD" d="M85.837,18.906c-0.35,0-0.669-0.049-0.958-0.146s-0.537-0.242-0.742-0.434s-0.364-0.434-0.479-0.727
				c-0.114-0.292-0.172-0.634-0.172-1.023c0-0.478,0.07-0.913,0.213-1.307c0.141-0.394,0.339-0.731,0.595-1.014
				c0.255-0.282,0.564-0.501,0.928-0.655c0.363-0.155,0.767-0.232,1.21-0.232c0.834,0,1.453,0.202,1.856,0.605
				s0.605,0.975,0.605,1.715c0,0.464-0.069,0.893-0.207,1.286s-0.336,0.732-0.595,1.019s-0.579,0.51-0.959,0.671
				C86.754,18.825,86.321,18.906,85.837,18.906z M85.051,16.566c0,0.343,0.072,0.616,0.217,0.821s0.385,0.308,0.721,0.308
				c0.209,0,0.396-0.05,0.564-0.151c0.168-0.101,0.312-0.24,0.43-0.418c0.117-0.179,0.207-0.39,0.268-0.636
				c0.061-0.245,0.09-0.513,0.09-0.802c0-0.356-0.072-0.631-0.217-0.822s-0.392-0.287-0.741-0.287c-0.208,0-0.396,0.05-0.56,0.151
				c-0.165,0.101-0.305,0.238-0.419,0.413s-0.202,0.385-0.263,0.631C85.08,16.02,85.051,16.283,85.051,16.566z"/>
			<path fill="#3162AD" d="M91.476,13.479l0.061,0.736c0.135-0.162,0.296-0.303,0.484-0.424c0.154-0.107,0.35-0.205,0.585-0.293
				c0.235-0.087,0.505-0.131,0.808-0.131c0.483,0,0.855,0.135,1.114,0.403c0.259,0.27,0.389,0.643,0.389,1.12
				c0,0.074-0.004,0.147-0.011,0.222s-0.017,0.151-0.03,0.232l-0.544,3.449h-1.563l0.524-3.309c0.006-0.04,0.012-0.08,0.015-0.121
				c0.004-0.04,0.005-0.077,0.005-0.11c0-0.216-0.052-0.374-0.156-0.475s-0.243-0.151-0.419-0.151c-0.175,0-0.339,0.046-0.494,0.137
				c-0.154,0.091-0.289,0.193-0.403,0.308c-0.135,0.128-0.262,0.275-0.383,0.443l-0.515,3.278h-1.563l0.837-5.315H91.476z"/>
			<path fill="#3162AD" d="M95.874,17.303c0.128,0.08,0.275,0.154,0.443,0.222c0.142,0.054,0.309,0.103,0.5,0.146
				c0.191,0.043,0.405,0.065,0.641,0.065c0.497,0,0.746-0.135,0.746-0.404c0-0.073-0.019-0.136-0.056-0.187
				c-0.037-0.05-0.092-0.094-0.166-0.131s-0.165-0.072-0.272-0.105c-0.107-0.034-0.232-0.077-0.373-0.132
				c-0.209-0.073-0.402-0.157-0.58-0.252c-0.179-0.094-0.331-0.207-0.459-0.338S96.07,15.902,96,15.724
				c-0.07-0.178-0.105-0.392-0.105-0.641c0-0.511,0.185-0.925,0.555-1.241c0.369-0.315,0.954-0.474,1.755-0.474
				c0.323,0,0.597,0.023,0.822,0.07c0.226,0.048,0.41,0.098,0.555,0.151s0.251,0.102,0.317,0.142
				c0.067,0.04,0.102,0.058,0.102,0.051l-0.424,1.119c0,0.007-0.03-0.008-0.091-0.045s-0.148-0.077-0.263-0.121
				s-0.257-0.084-0.429-0.121c-0.171-0.037-0.371-0.056-0.6-0.056c-0.531,0-0.797,0.128-0.797,0.383
				c0,0.088,0.025,0.162,0.075,0.223c0.051,0.061,0.119,0.112,0.207,0.156c0.087,0.044,0.185,0.084,0.292,0.121
				c0.108,0.037,0.223,0.075,0.344,0.116c0.242,0.087,0.452,0.18,0.63,0.277c0.179,0.098,0.326,0.21,0.444,0.338
				c0.117,0.128,0.203,0.272,0.257,0.434s0.081,0.347,0.081,0.555c0,0.571-0.197,1.005-0.59,1.301
				c-0.394,0.297-0.967,0.444-1.721,0.444c-0.336,0-0.629-0.023-0.877-0.07c-0.249-0.047-0.456-0.102-0.621-0.162
				c-0.164-0.061-0.287-0.115-0.368-0.166c-0.08-0.051-0.121-0.079-0.121-0.086L95.874,17.303z"/>
		</g>
	</g>
</g>
</svg>
